<svg width="475" height="475" xmlns="http://www.w3.org/2000/svg">
  <title>
    collibri
  </title>
  <g fill="none" fill-rule="evenodd">
    <path fill="#EE3023" d="M0 0h475v475H0z"/>
    <path d="M105 165c20.018665-5.275414 36.252691-2.645021 47 9 2.124737 2.76196 2.963148 6.173907 2 9-6.667516 27.379341-1.742083 50.000479 15 69 16.922861 19.481845 42.570221 35.61082 77 49 8.354826 2.70809 8.784497 14.283674 1 18-17.37192 7.941651-28.867166 15.869522-35 23-4.481159 6.504926-5.218465 11.754497-2 18 5.203314 13.056933 25.489414 25.607392 52 33 11.530542 3.532437 23.250461 5.554276 33 6 4.005378.111418 8.802734 1.168457 12-1 3.197266-2.168457 6.23995-18.280194 7-34 .042852-19.497785-2.578027-40.948038-8-60-7.862609-28.198497-22.387998-57.548044-44-88-3.743849-6.24214-.524235-14.343989 6-16 38.106082-7.875064 71.484534-25.662349 101-53 19.682901-19.341136 34.663661-39.363933 45-59 5.733798-11.1590046 9.737687-21.5010498 12-30-7.814992 1.9241819-19.421312 6.267061-34 13-25.534672 10.9349295-58.998821 28.2559139-83 43-29.080184 16.874693-55.23346 33.74531-79 50-3.870637 3.009619-9.462818 2.398896-13-1-15.884878-17.687023-30.557404-30.435308-44-39-18.357583-11.001362-30.618646-11.99415-44-4-9.276749 5.98641-15.553992 17.167128-19 35-.14072 1.931411-1.267643 3.935471-3 5-2.274559 2.492294-4.63146 4.658856-7 7 1.623011-.733904 3.208044-1.268234 5-2zm137 145c-1.239891-.545458-8.158027-3.244981-12-5-30.136305-12.687795-52.948784-28.016028-69-46-18.794618-21.932381-24.457998-47.929311-17-78-7.595292-8.698508-19.921472-10.698272-37-6-25.2211413 6.967017-67.7589537 56.325448-71 54-2.8413612-2.40251 29.3040452-45.046889 64-76 3.808391-20.144372 11.470611-33.809426 23-41 17.667533-10.847661 34.002201-9.066352 55 4 14.179384 8.607306 29.503824 21.939065 46 40 23.790977-16.571128 50.109036-33.569121 79-51 45.002094-26.4795235 135.97681-71.668325 134-54-2.405309 16.7406677-15.292453 59.29202-61 103-27.827754 26.30224-60.338607 44.136561-96 53-1.816574 1.211477-7.732465 2.492555-10 3 1.343563 1.817656 4.469761 7.314895 6 9 18.690463 28.343845 31.68503 55.704078 39 82 12.118997 42.831299 9.673271 90.151137-1 104-11.022743 12.395916-98.487007-4.522621-114-41-7.676077-16.759508 2.318359-32.744644 30-48 3.162192-1.340152 10.784823-5.446948 12-6zM111.012573 150.039551c-.480224 5.56372 2.28441 12.020796 11.000611 12.980957C125.493322 164.510528 116.82226 167.503692 96 172c2.3028856-6.968299 4.302886-11.634966 6-14 1.892132-3.658362 3.081771-9.44825 9.012573-7.960449z" fill="#FFF" fill-rule="nonzero"/>
    <path d="M302.483614 227.774818c31.979951-9.936691 57.744699-21.463025 77.307694-34.626493 19.451531-13.088466 36.09955-27.358196 49.934161-42.813526 1.841758-2.05752 1.666849-5.218509-.39067-7.060268-2.05752-1.841758-5.218509-1.666849-7.060268.39067-13.263045 14.816806-29.281693 28.547075-48.065839 41.186474-18.672682 12.564397-43.574601 23.704729-74.692306 33.373507-2.637059.819377-4.110582 3.621372-3.291204 6.258432.819377 2.637059 3.621372 4.110582 6.258432 3.291204zM166.575338 224.764831c.916949 2.910237 2.226066 5.40746 4.717621 9.484698.10924.178761.185534.303308.369028.602534.182315.297156.182315.297156.36195.590098.286349.467208.495227.809864.694985 1.140933 1.426604 2.364374 4.499798 3.124587 6.864172 1.697984 2.364374-1.426604 3.124587-4.499798 1.697984-6.864172-.213989-.354654-.43368-.715048-.731101-1.20032-.182325-.297329-.182325-.297329-.363784-.593091-.180884-.29497-.254523-.415182-.360332-.58833-2.083401-3.409323-3.114086-5.375421-3.712747-7.275468-.095326-.302549-.174776-.593375-.238607-.872882l-.060032-.262874-.087955-.254893c-3.093944-8.966289-3.388125-17.203374-.960499-24.857412.834854-2.632201-.622184-5.442804-3.254385-6.277657-2.632201-.834854-5.442804.622184-6.277657 3.254385-3.080787 9.713381-2.736485 20.061364.956662 30.900998.111121.456559.239526.914721.384697 1.375469z" fill="#FFF" fill-rule="nonzero"/>
  </g>
</svg>
